<?xml version="1.0" encoding="UTF-8"?>
<svg width="346px" height="438px" viewBox="0 0 346 438" version="1.1" xmlns="http://www.w3.org/2000/svg" xmlns:xlink="http://www.w3.org/1999/xlink">
    <title>Group</title>
    <g id="Page-1" stroke="none" stroke-width="1" fill="none" fill-rule="evenodd">
        <g id="Apple-TV-Copy-4" transform="translate(-433.000000, -300.000000)">
            <g id="Group" transform="translate(433.000000, 300.000000)">
                <g id="Group-10">
                    <circle id="Oval" fill="#FBCB9D" cx="173" cy="173" r="173"></circle>
                    <circle id="Oval" fill="#FFFFFF" cx="173.5" cy="166.5" r="133.5"></circle>
                    <g id="Group-6" transform="translate(72.000000, 49.000000)">
                        <g id="Group-5" transform="translate(0.000000, 17.723944)">
                            <path d="M99.3962661,218.603148 C167.874254,218.603148 210.012878,182.44252 201.959531,119.990656 C200.985986,112.441037 197.668868,109.88108 195.847301,103.284918 C193.601627,95.1530002 192.60095,82.7633549 188.673068,69.9527639 C176.045635,28.7690208 151.628369,0.142235772 101.633931,0.142235772 C49.0328554,0.142235772 27.5134269,27.466376 13.6421536,68.8652106 C11.2382074,76.0397911 8.92464399,90.8628508 6.43258989,98.9180047 C4.58433657,104.892179 3.56043273,105.825341 2.30096331,112.033356 C-10.4555376,174.911057 30.9182778,218.603148 99.3962661,218.603148 Z" id="Oval" stroke="#764100" stroke-width="4" fill="#FFFFFF"></path>
                            <path d="M99.3962661,218.429676 C167.874254,218.429676 209.256383,180.966548 201.203036,118.615533 C200.229491,111.078106 197.181559,137.459636 195.178094,141.623595 C193.174629,145.787555 186.517889,160.869923 173.813345,168.528857 C155.740616,179.424001 150.373732,186.92697 100.379294,186.92697 C47.7782181,186.92697 49.4468128,175.885601 43.741926,174.974866 C31.8581727,173.077727 13.5236914,150.41626 8.02455465,141.03589 C4.63648421,135.256554 3.56043273,105.833987 2.30096331,112.031976 C-10.4555376,174.80814 30.9182778,218.429676 99.3962661,218.429676 Z" id="Oval" stroke="#979797" fill="#FEFEFE"></path>
                            <path d="M99.3962661,218.603148 C124.26469,217.679765 86.3845517,216.966412 77.1835775,214.225798 C62.069255,209.723825 58.6224322,203.64668 52.5330631,196.538965 C39.9923443,181.901021 45.7441601,175.580921 41.4225622,173.009404 C30.5510639,166.540445 13.5236914,150.479724 8.02455465,141.084181 C4.63648421,135.295498 3.56043273,105.825341 2.30096331,112.033356 C-10.4555376,174.911057 33.6768015,221.043359 99.3962661,218.603148 Z" id="Oval" stroke="#979797" fill="#764100"></path>
                        </g>
                        <g id="Group-2" transform="translate(1.362416, 0.000000)">
                            <g id="Group-7" transform="translate(20.436242, 222.912676)" fill="#9F5802">
                                <path d="M27.6491939,16.0284884 C42.3218059,16.0284884 53.1342282,18.6239189 53.1342282,11.9977465 C53.1342282,5.37157407 41.2397261,-5.71556574e-14 26.5671141,-5.71556574e-14 C11.8945021,-5.71556574e-14 0,5.37157407 0,11.9977465 C0,18.6239189 12.976582,16.0284884 27.6491939,16.0284884 Z" id="Oval"></path>
                                <ellipse id="Oval" stroke="#979797" cx="13.9826916" cy="16.9059155" rx="3.35584599" ry="2.18140845"></ellipse>
                                <ellipse id="Oval-Copy-2" stroke="#979797" cx="24.6095373" cy="16.9059155" rx="3.35584599" ry="2.18140845"></ellipse>
                                <ellipse id="Oval-Copy-3" stroke="#979797" cx="37.4736136" cy="16.9059155" rx="3.35584599" ry="2.18140845"></ellipse>
                            </g>
                            <g id="Group-7" transform="translate(156.926174, 232.912676) scale(-1, 1) translate(-156.926174, -232.912676) translate(129.926174, 222.912676)" fill="#9F5802">
                                <path d="M27.6491939,16.0284884 C42.3218059,16.0284884 53.1342282,18.6239189 53.1342282,11.9977465 C53.1342282,5.37157407 41.2397261,-5.71556574e-14 26.5671141,-5.71556574e-14 C11.8945021,-5.71556574e-14 0,5.37157407 0,11.9977465 C0,18.6239189 12.976582,16.0284884 27.6491939,16.0284884 Z" id="Oval"></path>
                                <ellipse id="Oval" stroke="#979797" cx="13.9826916" cy="16.9059155" rx="3.35584599" ry="2.18140845"></ellipse>
                                <ellipse id="Oval-Copy-2" stroke="#979797" cx="24.6095373" cy="16.9059155" rx="3.35584599" ry="2.18140845"></ellipse>
                                <ellipse id="Oval-Copy-3" stroke="#979797" cx="37.4736136" cy="16.9059155" rx="3.35584599" ry="2.18140845"></ellipse>
                            </g>
                            <path d="M100.355012,204.938819 C138.98826,204.684494 189.412997,189.769007 196.053249,146.488034 C197.250503,138.684366 196.220611,128.030639 194.397865,121.443357 C192.150737,113.322386 191.149413,100.949419 187.21899,88.1560737 C185.050291,81.0970623 182.534061,74.4074583 179.600545,68.1684018 C165.442354,38.0565037 141.564024,18.4395228 100.123527,18.4395228 C47.4884122,18.4395228 25.955058,45.7268799 12.0748082,87.0699844 C9.66930643,94.2349067 7.35424583,109.038012 4.86057906,117.082322 C3.01112969,123.048454 -1.06121686,133.921655 0.258362532,140.277938 C10.3549559,188.912226 61.7217649,205.193143 100.355012,204.938819 Z" id="Oval" stroke="#FFFFFF" fill="#764100"></path>
                            <path d="M101.14598,204.939086 C132.402517,204.697269 179.59144,200.979086 173.006813,159.683707 C171.717443,151.597449 159.810001,145.257354 154.154986,137.584603 C148.49997,129.911853 135.09368,114.81761 132.961498,102.258558 C132.692292,100.672869 141.43327,27.6109816 100.958695,27.6109816 C58.3738351,27.6109816 64.9968332,101.529669 64.1840443,105.420933 C62.895219,111.591244 53.8299365,130.950481 48.2624132,137.100971 C43.415245,142.455677 34.8378978,159.852913 34.3996136,162.725174 C28.8303701,199.222778 69.8894427,205.180904 101.14598,204.939086 Z" id="Oval" stroke="#764100" stroke-width="4" fill="#FEFEFE"></path>
                            <path d="M77.4233591,25.6121165 C77.4233591,25.6121165 77.261308,13.0182798 81.8488503,6.57806509 C84.9072118,2.28458863 88.5701154,0.222677028 92.837561,0.392330272 C89.7531115,4.76651315 87.8021785,8.39664557 86.9847622,11.2827275 C86.1673458,14.1688095 86.2510266,17.1314532 87.2358044,20.1706586 C89.818625,15.0465499 91.8883087,11.3703814 93.4448554,9.14215313 C95.7796756,5.79981067 96.0487155,4.68971728 99.3842727,2.77987939 C101.607977,1.50665413 104.640754,0.75736104 108.482602,0.532000109 C106.552477,2.39350006 105.152887,5.13756067 104.283833,8.76418196 C103.414779,12.3908032 102.824762,16.1929621 102.513784,20.1706586 C108.320236,11.9097182 112.166815,6.98012923 114.053521,5.38189177 C115.940227,3.78365431 119.017518,2.84800107 123.285393,2.57493204 C120.387337,6.00133118 118.786717,9.59313906 118.483532,13.3503557 C118.180347,17.1075723 119.184808,20.9036734 121.496913,24.7386589 L98.4900327,27.2304393 C84.4455836,26.1515574 77.4233591,25.6121165 77.4233591,25.6121165 Z" id="Path-4" fill="#764100"></path>
                            <path d="M73.993369,144.550648 C73.993369,144.550648 79.9200105,150.841985 98.6879834,150.540122 C106.182343,150.419584 118.133614,150.207481 121.991637,149.296366 C127.795183,147.925794 123.44778,145.592934 123.162258,144.550648" id="Path-5" stroke="#9F5802" stroke-width="4"></path>
                            <path d="M99.3407476,150.550648 L99.0406874,167.534403 C96.7118343,171.524374 93.5112869,173.180955 89.4390454,172.504147" id="Path-6" stroke="#9F5802" stroke-width="4"></path>
                            <path d="M109.750856,150.550648 L109.450796,167.534403 C107.121942,171.524374 103.921395,173.180955 99.8491535,172.504147 C95.776912,171.827339 99.6516346,170.992623 111.473321,170" id="Path-6" stroke="#9F5802" stroke-width="4" transform="translate(104.878714, 161.601014) scale(-1, 1) translate(-104.878714, -161.601014) "></path>
                            <g id="Group-3" transform="translate(142.393638, 10.985248)" fill="#764100">
                                <ellipse id="Oval" cx="18.9824109" cy="16.8702017" rx="18.9824109" ry="16.8702017"></ellipse>
                            </g>
                            <g id="Group-4" transform="translate(16.366086, 10.985248)" fill="#FFFFFF" stroke="#764100" stroke-width="4">
                                <ellipse id="Oval" cx="19.3738008" cy="16.8702017" rx="19.3738008" ry="16.8702017"></ellipse>
                            </g>
                        </g>
                    </g>
                    <path d="M182.835238,437.05239 C206.713249,437.05239 229.716559,367.284346 240.373895,337.656118 C251.031231,308.027891 206.713249,317.05239 182.835238,317.05239 C158.957227,317.05239 109.597605,305.324927 119.230197,337.936852 C128.862789,370.548778 158.957227,437.05239 182.835238,437.05239 Z" id="Oval" fill="#FDCD9E"></path>
                </g>
                <path d="M110.863557,151.653092 C111.675857,143.037693 114.629043,138.691172 119.723115,138.613531 C124.817188,138.53589 127.734903,142.415878 128.476261,150.253493" id="Path-9" stroke="#FFFFFF" stroke-width="2"></path>
                <path d="M219,151.040703 C219.8123,142.425304 222.765486,138.078783 227.859558,138.001142 C232.95363,137.923501 235.871346,141.803489 236.612704,149.641104" id="Path-9" stroke="#FFFFFF" stroke-width="2"></path>
                <ellipse id="Oval" stroke="#FFFFFF" stroke-width="4" fill="#FFFFFF" cx="120" cy="156" rx="2" ry="5"></ellipse>
                <ellipse id="Oval" stroke="#FFFFFF" stroke-width="4" fill="#FFFFFF" cx="228" cy="157" rx="2" ry="5"></ellipse>
            </g>
        </g>
    </g>
</svg>